<svg version="1.1" id="Layer_1" xmlns="http://www.w3.org/2000/svg" xmlns:xlink="http://www.w3.org/1999/xlink" x="0px" y="0px"
	 width="100%" viewBox="0 0 225 225" enable-background="new 0 0 225 225" xml:space="preserve">
<path fill="#FEFDFD" opacity="1.000000" stroke="none" 
	d="
M154.000000,226.000000 
	C102.666672,226.000000 51.833340,226.000000 1.000005,226.000000 
	C1.000000,152.333344 1.030416,78.666626 0.903707,5.000188 
	C0.897817,1.575739 1.575572,0.897622 5.000147,0.903650 
	C77.333252,1.030972 149.666702,1.030969 221.999802,0.903658 
	C225.424240,0.897630 226.102371,1.575538 226.096344,5.000134 
	C225.969025,77.333244 225.969055,149.666687 226.096359,221.999786 
	C226.102386,225.424210 225.428802,226.131317 221.999161,226.101334 
	C199.500870,225.904678 177.000015,226.000000 154.000000,226.000000 
z"/>
<path fill="#FA0405" opacity="1.000000" stroke="none" 
	d="
M82.939972,103.214325 
	C82.151245,102.930565 81.661369,102.728340 81.033417,102.292740 
	C81.122330,101.253494 81.674774,100.729294 82.747444,100.200928 
	C83.862946,99.870621 84.628456,99.819603 85.771927,99.853584 
	C88.950958,100.400475 91.480103,102.626518 94.640259,100.992317 
	C98.065742,99.220924 100.395721,93.865173 99.463814,89.457985 
	C98.517128,84.980980 95.907333,82.744453 91.211746,82.417198 
	C90.075920,82.338036 88.902504,82.690277 87.578247,81.811943 
	C86.134422,78.559448 86.832359,75.457893 86.669304,72.073334 
	C86.687660,70.886063 86.807487,70.050148 86.733452,68.940102 
	C86.634651,68.502731 86.575768,68.333252 86.350143,67.962128 
	C86.023300,67.696518 85.863205,67.632568 85.440643,67.581329 
	C85.004333,67.636452 84.830490,67.678848 84.391632,67.783684 
	C83.766747,67.912033 83.404732,67.962448 82.758949,68.022469 
	C82.293427,68.055817 82.109520,68.064117 81.663460,68.084564 
	C79.995743,69.297066 81.686424,70.572929 81.335236,72.177078 
	C81.518356,80.160629 81.183182,87.769615 81.662445,95.786858 
	C81.912819,96.762482 81.983887,97.332321 81.953064,98.342987 
	C81.741837,99.658813 81.323494,100.396324 80.230141,101.161263 
	C79.690620,101.312904 79.530952,101.260277 79.183823,101.039017 
	C78.739883,100.669731 78.479645,100.474113 77.993217,100.182892 
	C75.414688,99.071831 73.058571,98.061401 70.341629,97.029022 
	C69.305862,96.228455 68.324944,96.610909 67.283279,96.115921 
	C66.901955,95.404694 66.749229,94.933960 66.444847,94.124435 
	C66.804527,79.244537 66.338089,64.698128 66.563820,50.156452 
	C66.588364,48.575306 65.441406,46.349442 68.573036,45.813446 
	C85.650665,52.804283 99.237541,63.269115 108.772240,78.704353 
	C110.560768,81.599716 111.634590,84.503113 111.604637,88.027161 
	C111.463524,104.630814 111.541786,121.236320 110.598000,138.015854 
	C108.446533,134.200668 106.295074,130.385483 103.920258,126.297775 
	C103.281837,125.469307 102.719971,125.033989 102.237228,124.099762 
	C97.810829,116.517250 91.777496,110.847168 85.214783,105.211349 
	C84.474197,104.340439 84.101395,103.552185 82.939972,103.214325 
z"/>
<path fill="#F90607" opacity="1.000000" stroke="none" 
	d="
M45.782585,108.442780 
	C57.789799,112.385262 69.274910,116.738724 79.884682,123.886581 
	C80.622765,124.529991 81.052589,125.046387 81.759850,125.767349 
	C81.996819,126.005981 82.000000,126.000000 81.996857,126.001701 
	C82.674149,126.786339 83.576019,127.222069 84.767258,127.764984 
	C85.024857,127.921974 84.988869,127.969215 85.017792,127.975937 
	C85.240379,128.234634 85.445427,128.476974 85.819763,128.888000 
	C86.492973,129.653732 87.008293,130.241150 87.815483,130.895584 
	C88.409592,131.281128 88.744492,131.560501 89.281448,132.081512 
	C89.749786,133.510925 90.508331,134.226868 91.881676,134.787460 
	C92.501129,135.003784 92.748070,135.183350 92.964951,135.706085 
	C93.795128,137.455170 93.332817,138.292755 91.202713,138.271088 
	C75.941391,130.566620 60.825436,123.844803 44.131493,121.586662 
	C41.494976,121.230026 38.860760,120.765083 36.210899,120.623993 
	C33.534382,120.481483 32.773647,119.158684 33.272224,116.352554 
	C33.705952,101.919052 33.472385,87.887154 33.280514,73.424835 
	C33.099873,69.195946 33.099873,65.398125 33.099873,61.605415 
	C33.463882,61.528481 33.810253,61.334034 34.060600,61.419815 
	C44.645893,65.047012 44.613312,65.050270 44.673199,76.260468 
	C44.726299,86.200821 44.859932,96.140732 45.038551,106.543846 
	C45.334370,107.386253 45.480675,107.789856 45.782585,108.442780 
z"/>
<path fill="#FB0203" opacity="1.000000" stroke="none" 
	d="
M144.794006,52.473480 
	C145.008728,52.209057 145.301880,51.911602 145.510666,51.907810 
	C146.040497,51.804142 146.332001,51.648823 146.791534,51.284592 
	C146.989059,51.131096 147.258392,50.857124 147.450043,50.870293 
	C147.989395,50.815643 148.303421,50.675049 148.783783,50.286644 
	C148.989349,50.123516 149.383179,49.815491 149.630539,49.779335 
	C152.286835,50.309532 154.549820,50.504696 155.783600,47.271755 
	C156.780106,46.674591 157.551407,46.315266 158.646881,45.961044 
	C160.068115,48.949791 159.206177,52.044014 159.488220,55.465988 
	C159.391693,57.400665 158.486649,58.635349 157.780151,59.896759 
	C155.912521,63.231365 157.233551,65.844902 159.444351,68.741089 
	C159.476471,74.772728 159.489380,80.412323 159.486938,86.455093 
	C158.626740,90.488014 157.106003,93.615303 153.471527,95.308769 
	C152.100006,95.947815 151.278366,97.245613 150.278717,98.820953 
	C150.051712,99.124840 149.992249,99.478569 149.962830,99.655487 
	C149.578232,100.319916 149.100693,100.537262 148.084869,100.517075 
	C144.377701,100.574837 142.921188,98.741043 142.684799,95.647835 
	C142.571548,94.166031 142.413132,92.687920 142.026550,90.852699 
	C141.402390,88.413620 142.242706,86.154037 140.767456,83.988007 
	C136.434067,83.119911 132.391418,82.861801 128.050812,84.228020 
	C127.485214,84.482574 127.249336,84.564377 126.642792,84.707283 
	C124.529854,84.696640 122.787308,84.599419 120.659904,84.792053 
	C116.767548,82.966568 117.121529,80.102737 119.140488,77.835106 
	C121.391785,75.306526 122.782806,72.356873 124.717949,69.232727 
	C124.875290,68.866615 124.959671,68.955200 124.901489,68.936310 
	C125.192398,68.767319 125.481888,68.542656 125.791145,67.965103 
	C126.664970,66.758759 127.449486,65.818329 128.519058,64.754028 
	C129.847702,64.831718 130.800644,64.887596 130.708588,63.107883 
	C131.503601,61.914879 132.380066,61.008652 133.564026,60.022217 
	C134.146072,59.789474 134.398239,59.606144 134.799469,59.232365 
	C134.970932,59.072712 134.992691,58.967491 135.046051,58.973732 
	C135.222595,58.833263 135.345795,58.686558 135.718948,58.398071 
	C136.354660,57.878719 136.740417,57.501141 137.392960,57.063267 
	C140.087891,55.778610 143.656326,56.404247 144.794006,52.473480 
z"/>
<path fill="#FA0506" opacity="1.000000" stroke="none" 
	d="
M152.219543,129.730499 
	C149.048660,131.335632 146.101990,132.745255 142.811005,134.172211 
	C140.249466,134.548508 138.161758,134.647980 137.754181,131.332993 
	C137.936432,130.919556 137.987549,130.992172 137.947495,130.973022 
	C138.201645,130.801926 138.454193,130.598312 138.813354,130.148468 
	C138.961624,129.953918 138.998856,130.000626 138.976151,129.980927 
	C139.132202,129.814468 139.310974,129.667709 139.748917,129.290314 
	C141.505112,127.760689 143.002136,126.461685 144.739105,124.928299 
	C145.482620,124.418091 145.752258,123.907928 146.380920,123.359314 
	C146.945908,122.997475 147.291641,122.826195 147.930710,122.580048 
	C148.413300,122.450287 148.612457,122.415192 149.115936,122.350243 
	C150.318985,122.350677 150.999039,121.918007 151.745361,121.018753 
	C159.503784,115.679832 167.924683,112.396561 176.639603,109.987953 
	C180.370377,108.956856 181.623520,107.246948 181.320984,103.513962 
	C181.015610,99.745628 181.285767,95.930649 181.197113,91.694229 
	C181.791153,89.626846 181.549911,87.954292 181.226257,85.939537 
	C181.203384,83.464882 181.292847,81.333931 181.249329,78.823822 
	C181.960495,74.676651 181.326096,70.859375 181.390488,66.642380 
	C184.041382,63.616901 187.838928,63.328514 191.457047,61.771973 
	C193.361176,69.493805 192.005219,77.330765 192.711456,85.548294 
	C192.940140,86.440102 192.994385,86.894745 192.961349,87.684113 
	C192.774109,88.179138 192.674118,88.339432 192.719131,88.743210 
	C192.916809,89.748917 192.969467,90.511131 192.943207,91.649055 
	C192.027298,97.396187 192.667953,102.798370 192.665283,108.588364 
	C192.803146,112.465332 193.974045,116.594894 192.492188,119.236130 
	C190.837616,122.185234 186.144470,120.589333 182.844360,121.363037 
	C177.045639,122.722549 171.211212,123.929810 165.012695,125.184113 
	C163.904282,125.191322 163.226990,125.484528 162.246246,125.823578 
	C161.981430,126.069115 161.815704,126.240967 161.704651,126.197159 
	C161.183914,126.124908 160.820435,126.245140 160.252853,126.664955 
	C160.008667,126.835632 159.584976,127.072838 159.342896,127.054413 
	C158.621552,127.415543 158.031616,127.471062 157.229721,127.767570 
	C156.758652,128.145630 156.486511,128.273788 155.954956,128.277756 
	C155.260681,128.131042 154.835526,128.229767 154.217880,128.777313 
	C153.979340,129.027740 153.792664,129.243683 153.660004,129.191086 
	C153.120392,129.145615 152.759216,129.277832 152.219543,129.730499 
z"/>
<path fill="#FC9B39" opacity="1.000000" stroke="none" 
	d="
M95.742661,126.638885 
	C96.865768,127.818260 97.586288,128.907303 96.717720,130.460556 
	C94.128548,129.953537 92.781754,127.721649 90.627472,126.052292 
	C89.943802,125.784004 89.618713,125.578026 89.211914,125.024307 
	C87.297966,123.235420 85.518410,121.708603 83.438507,120.061554 
	C82.526947,119.617928 81.951363,119.245323 81.229866,118.494324 
	C74.510895,112.960770 67.168739,109.309685 58.884102,106.793015 
	C58.130699,106.830818 57.782280,106.709671 57.246613,106.300293 
	C54.092415,104.652855 48.964752,105.628639 49.881699,99.384933 
	C49.748470,98.817665 49.687237,98.655022 49.731003,98.253761 
	C49.857906,94.639198 49.879807,91.263245 49.834076,87.431732 
	C49.766441,86.976173 49.625977,86.506111 49.680443,86.266937 
	C49.770908,85.570053 49.806908,85.112335 49.788696,84.313477 
	C49.734486,83.972328 49.625919,83.494377 49.692596,83.258560 
	C49.826687,81.613655 49.894093,80.204575 50.029049,78.376831 
	C50.993740,74.903946 50.277229,71.785706 50.268993,68.366287 
	C50.011070,64.048637 49.983139,60.066990 49.869648,56.087784 
	C49.813381,54.115082 50.200790,52.748684 53.015511,53.286659 
	C53.840168,53.174088 54.222336,53.298729 54.773323,53.805290 
	C55.477654,54.278347 55.967129,54.520817 56.739227,54.757652 
	C57.194057,54.712112 57.366261,54.672203 57.767197,54.766418 
	C60.550957,55.547493 59.918266,57.550755 59.923286,59.330135 
	C59.959743,72.251335 60.020706,85.172470 60.146027,98.558716 
	C60.542233,100.151672 61.374252,100.554214 62.721802,100.740204 
	C63.996326,101.287682 65.009377,101.688911 66.349152,102.117249 
	C67.274841,102.329391 67.874352,102.512321 68.745529,102.810745 
	C69.475426,103.308990 69.952194,103.621735 70.719620,103.965332 
	C71.407585,104.462868 71.982826,104.503555 72.769791,104.763504 
	C74.100609,105.550606 75.184700,106.202217 76.574501,106.954285 
	C77.738617,107.627396 78.771507,107.896622 79.764595,108.825439 
	C85.627861,113.922150 91.566650,118.532715 95.136978,125.751373 
	C95.436821,126.154205 95.468468,126.333618 95.742661,126.638885 
z"/>
<path fill="#FC9C3B" opacity="1.000000" stroke="none" 
	d="
M148.957748,115.798767 
	C142.446365,119.320869 137.297729,124.152603 132.036407,129.325653 
	C131.787430,130.034943 131.569962,130.390701 130.930420,130.777618 
	C129.687027,131.518509 128.750443,132.160553 127.530487,132.862473 
	C126.004433,132.113815 126.487396,131.300476 127.517776,130.233826 
	C129.150940,127.900047 130.506638,125.818825 131.949188,123.412300 
	C132.658844,122.295799 132.834167,121.234138 133.867096,120.406296 
	C136.993896,117.479515 139.840347,114.667824 142.876312,111.601944 
	C143.233795,110.659126 143.764099,110.329010 144.659088,109.982666 
	C146.839417,108.772163 148.708618,107.630859 150.788300,106.239365 
	C151.475967,105.645325 152.143600,105.848999 152.782379,105.210930 
	C156.108398,103.753273 159.247971,102.518364 162.690552,101.088135 
	C163.709427,100.195541 164.640320,99.859184 165.707581,99.195892 
	C165.996292,87.540504 166.090912,76.089958 166.150558,64.639229 
	C166.196014,55.915005 166.176285,55.914902 174.659790,52.979252 
	C175.187164,52.779247 175.362396,52.724117 175.774704,52.809433 
	C176.060944,54.359604 176.110107,55.769329 176.069809,57.594002 
	C174.894760,66.041290 175.725266,74.108437 175.733276,82.563065 
	C176.000610,87.677956 176.076340,92.386948 176.208420,97.560349 
	C176.264786,98.024765 176.374023,98.505356 176.303894,98.741592 
	C176.192200,99.740654 176.150650,100.503479 176.171417,101.644424 
	C176.233749,102.022560 176.374252,102.501251 176.305237,102.740952 
	C175.793045,104.214439 174.646973,104.429893 173.300934,104.935760 
	C172.849930,105.169785 172.703293,105.264664 172.296188,105.331360 
	C164.254654,107.005638 157.102310,110.182526 150.224365,114.774933 
	C149.740219,115.261940 149.471527,115.483810 148.957748,115.798767 
z"/>
<path fill="#F70304" opacity="1.000000" stroke="none" 
	d="
M142.646240,89.339401 
	C143.726028,91.273987 144.294662,93.030548 143.971970,94.875664 
	C143.458389,97.812286 145.017258,99.107765 147.879913,99.958267 
	C148.302200,100.290810 148.358475,100.467003 148.187347,100.802132 
	C147.959961,100.961075 147.994537,101.002274 147.982086,100.979630 
	C147.578842,101.411163 147.014191,101.467453 146.318954,101.826202 
	C135.356964,108.375542 127.483299,117.534859 120.929565,128.361938 
	C120.690865,129.372116 120.333572,129.948181 119.667221,130.739197 
	C118.158058,133.443771 116.852974,135.873856 115.547897,138.303940 
	C115.287399,138.295624 115.026901,138.287308 114.766403,138.278992 
	C114.766403,135.903427 114.778992,133.527802 114.764290,131.152328 
	C114.686958,118.658745 115.255623,106.115929 114.317642,93.686989 
	C113.544937,83.448051 118.376152,76.281746 124.568626,69.013199 
	C124.672028,72.419556 123.162239,75.343376 120.554123,77.712608 
	C118.358070,79.707512 118.218987,81.741631 120.699364,83.954773 
	C121.401466,84.377777 121.624825,84.783257 121.790367,85.592041 
	C121.412834,89.045227 119.279556,92.068359 121.586563,95.554092 
	C121.903893,95.995308 122.032646,96.167747 122.332336,96.608231 
	C122.695625,97.242157 122.882935,97.610603 123.219070,98.235657 
	C124.018219,99.559036 125.113091,99.202065 126.372398,99.386642 
	C129.242157,100.544777 131.634613,102.167984 134.639908,101.739510 
	C137.093964,101.389633 139.508194,101.035950 139.437057,97.468811 
	C138.640091,93.306046 138.749603,89.172264 133.073730,88.571518 
	C131.490921,88.403992 130.783737,87.994362 129.923782,89.495735 
	C129.412216,90.388855 128.355316,90.675316 126.960373,90.172203 
	C125.668198,88.070030 126.253677,86.356796 127.455414,84.352386 
	C132.281311,81.621704 136.721924,81.529900 141.133270,85.274170 
	C142.051575,86.632195 141.864868,87.959366 142.646240,89.339401 
z"/>
<path fill="#F96566" opacity="1.000000" stroke="none" 
	d="
M168.263306,167.237274 
	C170.395584,167.120224 172.689316,166.278275 172.406693,169.368500 
	C172.212250,171.494659 173.717926,174.438187 170.836945,175.476532 
	C169.210785,176.062637 166.216324,176.019699 165.820450,173.722687 
	C165.460617,171.634720 163.691238,168.262192 168.263306,167.237274 
z"/>
<path fill="#F63B3B" opacity="1.000000" stroke="none" 
	d="
M76.554794,170.947876 
	C76.246529,173.025940 77.581528,175.714508 74.042664,175.390121 
	C71.736374,175.178726 69.722122,174.656052 69.977173,171.673782 
	C70.162285,169.509079 70.283157,167.539078 73.330193,167.203461 
	C76.272705,166.879349 76.746750,168.211075 76.554794,170.947876 
z"/>
<path fill="#F4494A" opacity="1.000000" stroke="none" 
	d="
M193.155304,170.149139 
	C193.967285,166.570435 197.021927,166.536285 198.681274,167.508987 
	C201.060623,168.903778 200.036560,172.114090 199.521194,174.326935 
	C199.012680,176.510269 196.671295,175.379929 195.234268,175.070480 
	C192.750351,174.535599 193.988098,171.970993 193.155304,170.149139 
z"/>
<path fill="#F73F3E" opacity="1.000000" stroke="none" 
	d="
M111.677956,172.507065 
	C112.038094,170.543106 110.642952,168.220078 113.283119,167.602783 
	C114.678314,167.276581 116.901901,165.990982 117.367264,168.439056 
	C117.788391,170.654465 118.920090,173.698502 116.453506,175.133499 
	C115.098328,175.921906 112.026169,176.269470 111.677956,172.507065 
z"/>
<path fill="#F54546" opacity="1.000000" stroke="none" 
	d="
M49.200111,170.973907 
	C48.876678,173.080582 50.337059,175.778488 46.648666,175.436096 
	C44.219585,175.210617 42.557262,174.722855 42.641884,171.673965 
	C42.710480,169.202576 43.010242,167.546417 45.949650,167.177292 
	C48.830582,166.815521 49.492149,168.086517 49.200111,170.973907 
z"/>
<path fill="#F74343" opacity="1.000000" stroke="none" 
	d="
M57.328373,168.224304 
	C59.276443,167.320099 61.526810,166.108704 62.469051,168.020279 
	C63.329750,169.766403 62.989029,172.240891 62.754959,174.347397 
	C62.567871,176.031082 60.958004,175.434875 59.912670,175.272339 
	C58.488277,175.050858 56.712063,175.012344 56.701900,172.911407 
	C56.694775,171.438751 56.930290,169.964951 57.328373,168.224304 
z"/>
<path fill="#F74E4F" opacity="1.000000" stroke="none" 
	d="
M138.581055,171.726349 
	C138.185257,168.276550 139.822647,167.240875 142.615814,167.154541 
	C144.286270,167.102905 145.321411,167.733948 144.986343,169.381729 
	C144.569885,171.429520 146.644943,174.486481 143.581940,175.356384 
	C141.553421,175.932495 138.767410,175.454865 138.581055,171.726349 
z"/>
<path fill="#F43638" opacity="1.000000" stroke="none" 
	d="
M86.825928,175.229889 
	C82.296188,174.380463 84.309586,170.941208 84.250656,168.877213 
	C84.200310,167.113846 86.818817,167.095200 88.389931,167.265762 
	C91.718002,167.627090 89.803986,170.333710 90.143608,171.959229 
	C90.593552,174.112671 90.284485,176.068680 86.825928,175.229889 
z"/>
<path fill="#F43638" opacity="1.000000" stroke="none" 
	d="
M131.230713,173.518173 
	C130.022720,176.958496 127.554230,175.416077 126.402489,174.589783 
	C124.632980,173.320282 124.666969,170.700027 125.260796,168.760147 
	C125.821175,166.929474 128.201660,166.932907 129.564255,167.319778 
	C132.737854,168.220840 130.637131,171.147339 131.230713,173.518173 
z"/>
<path fill="#F79896" opacity="1.000000" stroke="none" 
	d="
M156.213089,174.925766 
	C154.014648,176.349838 152.168839,175.653503 151.560654,173.823288 
	C150.928497,171.920914 150.419891,169.376846 152.275970,167.816650 
	C153.812454,166.525116 156.433716,166.175980 157.862411,167.265442 
	C160.224457,169.066650 158.879105,172.055801 158.476105,174.839508 
	C157.341675,174.540329 157.148453,173.661453 156.952316,172.784073 
	C156.956299,173.458786 156.784393,174.083847 156.213089,174.925766 
z"/>
<path fill="#FAF2EE" opacity="1.000000" stroke="none" 
	d="
M68.762878,45.751732 
	C65.367462,45.710815 66.659515,48.498447 66.649353,50.109364 
	C66.559326,64.381416 66.591972,78.654251 66.440796,93.356239 
	C66.175186,78.421852 66.048950,63.058125 65.951141,47.694218 
	C65.940681,46.050804 66.220497,44.550484 68.762878,45.751732 
z"/>
<path fill="#EC7174" opacity="1.000000" stroke="none" 
	d="
M158.587494,88.427414 
	C158.869995,81.646797 158.922287,75.289139 158.917419,68.466293 
	C156.621567,64.705406 157.525940,61.264088 158.634552,57.413818 
	C158.934128,53.630447 158.987976,50.257957 159.006454,46.425808 
	C160.469208,45.647224 160.005737,46.837818 160.003296,47.452259 
	C159.942505,62.808647 159.845047,78.164886 159.490646,93.859993 
	C157.384674,92.668556 158.045425,90.731094 158.587494,88.427414 
z"/>
<path fill="#CDCDCD" opacity="1.000000" stroke="none" 
	d="
M57.912571,155.131805 
	C57.809101,161.546127 57.326763,161.910934 49.549725,161.889755 
	C54.695145,159.807236 55.476227,158.129791 54.148335,152.640411 
	C53.943314,151.792877 54.234585,150.100677 54.660854,149.967728 
	C55.726555,149.635315 57.082386,150.109131 57.514175,151.320023 
	C57.886143,152.363159 57.787518,153.574081 57.912571,155.131805 
z"/>
<path fill="#EBEBEB" opacity="1.000000" stroke="none" 
	d="
M40.896996,159.674286 
	C39.651455,164.790024 36.148983,161.500381 33.271881,161.963669 
	C30.959858,156.728531 31.775932,155.345520 37.131874,155.771881 
	C38.598022,156.794250 40.411919,155.704132 40.986839,157.744720 
	C40.867073,158.438126 40.808372,158.885635 40.896996,159.674286 
z"/>
<path fill="#F70304" opacity="1.000000" stroke="none" 
	d="
M158.479950,88.082886 
	C158.888397,89.779022 158.959091,91.553596 159.128510,93.763504 
	C157.623520,97.928207 153.285858,96.873741 150.416260,99.075394 
	C149.952087,97.273880 149.703888,95.218452 152.004715,94.554466 
	C155.355347,93.587532 156.914398,91.074631 158.479950,88.082886 
z"/>
<path fill="#F3090A" opacity="1.000000" stroke="none" 
	d="
M137.621384,131.037262 
	C138.072678,133.364166 140.478439,132.912933 142.108490,134.049042 
	C139.455368,135.970566 136.444046,137.751587 133.224258,139.805557 
	C132.285522,140.508255 131.518036,140.722641 130.342529,140.238754 
	C131.749100,136.474426 134.609909,133.882523 137.621384,131.037262 
z"/>
<path fill="#E61916" opacity="1.000000" stroke="none" 
	d="
M33.014824,73.456558 
	C33.387924,73.737938 33.927052,74.482216 33.926750,75.226273 
	C33.921352,88.574867 33.850681,101.923424 33.566895,115.610611 
	C33.203106,101.939262 33.066441,87.929314 33.014824,73.456558 
z"/>
<path fill="#ABABAB" opacity="1.000000" stroke="none" 
	d="
M119.715881,149.426147 
	C124.137894,150.601700 121.439400,154.052597 121.878609,156.561737 
	C122.311996,159.037582 121.727776,161.695358 126.478035,161.402786 
	C124.088409,163.330505 122.326271,162.765762 120.266449,162.642197 
	C118.367043,158.345352 118.900772,154.077347 119.715881,149.426147 
z"/>
<path fill="#CDCDCD" opacity="1.000000" stroke="none" 
	d="
M60.719810,153.522919 
	C60.979591,152.395844 61.104168,151.582443 61.302864,150.285065 
	C63.503273,152.864059 64.518585,155.377014 64.114342,158.407547 
	C63.956390,159.591660 63.774895,160.795441 62.192894,160.816650 
	C60.994534,160.832748 60.223553,159.968933 60.199688,158.999313 
	C60.157532,157.286270 58.945393,155.428802 60.719810,153.522919 
z"/>
<path fill="#BDBDBD" opacity="1.000000" stroke="none" 
	d="
M158.725250,149.400665 
	C159.913147,148.732361 160.898285,148.097168 161.749542,148.243057 
	C163.435745,148.532043 166.686111,146.892883 166.507202,149.477219 
	C166.303757,152.415756 163.882492,147.988495 162.471100,149.609344 
	C162.295364,149.811157 161.863358,149.789825 161.218887,149.949173 
	C160.042908,153.432755 160.643433,156.888565 160.748444,160.656906 
	C161.344971,161.454391 162.146652,162.153564 162.042450,162.336349 
	C161.440964,163.391556 160.363358,162.706924 159.151184,162.739227 
	C157.419800,158.415817 157.853058,154.103851 158.725250,149.400665 
z"/>
<path fill="#F59291" opacity="1.000000" stroke="none" 
	d="
M32.265522,174.681702 
	C29.871252,176.355179 28.372000,175.654602 28.297306,173.305832 
	C28.218647,170.832443 26.814188,167.284073 31.889091,167.291687 
	C33.754936,169.672623 33.644119,171.975342 32.265522,174.681702 
z"/>
<path fill="#A3A3A3" opacity="1.000000" stroke="none" 
	d="
M189.705765,149.460327 
	C194.273148,150.524673 191.149948,154.014236 191.929276,156.447083 
	C192.544830,158.368652 190.931992,161.447205 195.284012,161.197418 
	C193.574875,162.062851 192.299026,163.013763 190.243210,162.644348 
	C188.336060,158.356735 188.921936,154.097656 189.705765,149.460327 
z"/>
<path fill="#FC4745" opacity="1.000000" stroke="none" 
	d="
M99.831375,174.154510 
	C96.833496,171.330994 96.887093,170.080963 100.096298,167.709442 
	C103.055122,167.393158 102.887352,169.337418 102.925224,170.911362 
	C102.969482,172.750687 102.924370,174.699936 99.831375,174.154510 
z"/>
<path fill="#F9A3A4" opacity="1.000000" stroke="none" 
	d="
M182.230072,174.786530 
	C178.949463,176.400940 179.018997,173.994507 179.079788,172.327499 
	C179.149094,170.426697 177.828537,167.671326 181.208450,167.111725 
	C182.665298,166.870499 184.181595,166.603668 185.806366,167.643188 
	C183.488754,169.472549 183.509506,172.287247 182.230072,174.786530 
z"/>
<path fill="#848484" opacity="1.000000" stroke="none" 
	d="
M189.531464,149.036041 
	C189.959839,153.281586 189.950119,157.483414 189.912842,162.113251 
	C189.412689,162.483139 188.530884,162.448120 188.526093,162.363556 
	C188.273407,157.890640 186.886749,153.356995 189.531464,149.036041 
z"/>
<path fill="#878787" opacity="1.000000" stroke="none" 
	d="
M119.541794,149.021515 
	C119.968552,153.260544 119.958450,157.477509 119.904282,162.121536 
	C119.392685,162.485352 118.519356,162.439575 118.515770,162.356384 
	C118.323601,157.889496 116.905724,153.356506 119.541794,149.021515 
z"/>
<path fill="#F63B3B" opacity="1.000000" stroke="none" 
	d="
M182.449463,175.107910 
	C183.009308,172.614670 179.590439,168.248093 185.571625,167.909668 
	C185.999268,169.669708 185.933182,171.327499 186.058151,172.970749 
	C186.258148,175.600815 184.667160,175.470871 182.449463,175.107910 
z"/>
<path fill="#8B8B8B" opacity="1.000000" stroke="none" 
	d="
M158.586761,149.042389 
	C158.979736,153.278503 158.970901,157.542633 158.893250,162.241425 
	C155.544769,158.284988 157.062302,153.668411 158.586761,149.042389 
z"/>
<path fill="#F89522" opacity="1.000000" stroke="none" 
	d="
M175.995621,82.516464 
	C174.031387,74.882904 175.103973,66.731766 175.685303,58.303413 
	C176.056427,62.046276 176.132507,66.083603 176.288681,70.579613 
	C176.368774,71.038292 176.373917,71.506538 176.348404,71.739273 
	C176.237381,75.335999 176.151855,78.699982 175.995621,82.516464 
z"/>
<path fill="#E70202" opacity="1.000000" stroke="none" 
	d="
M192.965851,85.523621 
	C190.974930,80.434631 192.442276,74.707817 192.022690,69.077438 
	C191.865158,66.963615 191.960220,64.830978 191.888306,62.225060 
	C194.329025,61.540974 193.035217,63.465752 193.046326,64.271729 
	C193.141800,71.200424 193.068634,78.131454 192.965851,85.523621 
z"/>
<path fill="#F43638" opacity="1.000000" stroke="none" 
	d="
M99.421295,174.224884 
	C103.628448,172.882935 102.145264,170.439362 100.703583,167.953384 
	C101.643692,167.181015 103.300804,166.528641 103.712349,168.220276 
	C104.204971,170.245193 104.413849,172.727631 103.653465,174.558289 
	C102.910622,176.346771 100.827835,175.310791 99.421295,174.224884 
z"/>
<path fill="#848484" opacity="1.000000" stroke="none" 
	d="
M104.587402,152.087585 
	C104.986084,152.757645 105.099815,153.580887 105.132339,154.407303 
	C105.205307,156.261185 105.168388,158.038025 102.858849,158.686859 
	C101.971741,158.936081 101.535889,158.408585 101.376297,157.871445 
	C100.787315,155.888977 100.498032,153.916489 102.969276,152.867477 
	C103.410362,152.680222 103.833931,152.451660 104.587402,152.087585 
z"/>
<path fill="#EBEBEB" opacity="1.000000" stroke="none" 
	d="
M42.306389,158.031387 
	C40.380474,153.542007 45.665218,153.005493 46.424122,149.849777 
	C47.219837,151.968613 47.591965,153.928055 45.248268,155.683899 
	C45.460842,156.716263 45.105080,157.270111 44.294281,157.933319 
	C43.544537,158.077713 43.107849,158.078491 42.306389,158.031387 
z"/>
<path fill="#F1201F" opacity="1.000000" stroke="none" 
	d="
M32.307556,175.095673 
	C32.040771,172.781601 32.081455,170.515427 32.197525,167.839432 
	C32.629578,167.378113 32.986248,167.326645 33.611237,167.242706 
	C36.941853,168.992676 34.934742,171.893127 35.224289,174.622742 
	C35.018314,175.003860 35.002735,175.002396 35.004684,175.009918 
	C34.828709,175.130096 34.650784,175.242737 34.156990,175.355789 
	C33.432419,175.285324 33.023720,175.214447 32.307556,175.095673 
z"/>
<path fill="#F70304" opacity="1.000000" stroke="none" 
	d="
M144.672577,52.269154 
	C145.625214,57.599964 142.576752,58.008190 138.074646,57.003563 
	C139.342697,54.669910 141.974274,53.692009 144.672577,52.269154 
z"/>
<path fill="#F70304" opacity="1.000000" stroke="none" 
	d="
M155.656219,46.999130 
	C155.833908,52.591473 155.833908,52.591473 150.092163,50.052681 
	C151.686478,48.816891 153.495041,47.890614 155.656219,46.999130 
z"/>
<path fill="#434343" opacity="1.000000" stroke="none" 
	d="
M80.746201,149.402359 
	C81.622131,149.011108 82.752960,148.553360 82.693642,149.326340 
	C82.351219,153.787659 81.966621,158.232452 82.715134,162.687103 
	C82.247475,162.642746 81.779823,162.598419 81.066513,162.294754 
	C79.406227,157.992340 79.880432,153.895340 80.746201,149.402359 
z"/>
<path fill="#040404" opacity="1.000000" stroke="none" 
	d="
M37.295898,155.689850 
	C33.309124,155.180420 32.253181,157.296448 32.933891,161.499634 
	C32.879242,161.947281 32.493790,161.995056 32.300682,161.974487 
	C30.108999,157.994537 31.015308,153.885345 31.759800,149.407318 
	C32.890255,149.092453 33.741604,149.169144 34.644173,149.569031 
	C34.662712,150.952194 34.069637,152.093826 35.438080,153.120728 
	C36.116589,153.427094 36.457039,153.669235 36.648476,154.287872 
	C36.702839,154.845001 36.850212,155.102386 37.295898,155.689850 
z"/>
<path fill="#E70202" opacity="1.000000" stroke="none" 
	d="
M192.893463,108.532364 
	C191.174362,103.588089 192.103226,98.109833 192.597229,92.338318 
	C192.904282,97.373947 192.944275,102.723129 192.893463,108.532364 
z"/>
<path fill="#040404" opacity="1.000000" stroke="none" 
	d="
M146.970184,151.493378 
	C147.152740,150.385468 145.288086,149.356796 147.246063,148.992615 
	C147.851685,148.879959 149.165237,148.610641 148.626450,149.953705 
	C147.530350,152.686050 148.374496,155.486649 148.046188,158.230225 
	C147.975021,158.825211 148.200287,159.589340 147.320175,159.844940 
	C146.563400,160.064713 146.093414,159.654831 145.670517,159.126358 
	C144.620148,157.813812 146.270020,158.172348 146.520264,157.697037 
	C147.486237,155.862274 146.801575,153.842087 146.970184,151.493378 
z"/>
<path fill="#121212" opacity="1.000000" stroke="none" 
	d="
M31.139702,161.556168 
	C30.533939,161.925797 29.914570,161.907990 29.914696,161.897568 
	C29.966322,157.569016 30.060131,153.240967 30.550808,148.967133 
	C32.040409,153.035629 31.280678,157.121094 31.139702,161.556168 
z"/>
<path fill="#040404" opacity="1.000000" stroke="none" 
	d="
M169.990692,153.337860 
	C169.891968,151.630264 169.795547,150.358139 169.699127,149.086029 
	C171.417847,153.358551 170.968109,157.625870 169.992996,161.897369 
	C169.992996,159.189362 169.992996,156.481354 169.990692,153.337860 
z"/>
<path fill="#BDBDBD" opacity="1.000000" stroke="none" 
	d="
M176.825211,149.543243 
	C178.234802,150.346909 180.028564,148.561859 181.027603,150.705521 
	C180.805984,151.821930 180.235474,152.568970 180.736908,153.788544 
	C176.270172,157.154877 177.461105,152.871552 176.686462,150.499069 
	C176.540176,149.959579 176.558212,149.787643 176.825211,149.543243 
z"/>
<path fill="#E1E1E1" opacity="1.000000" stroke="none" 
	d="
M36.896729,154.246735 
	C30.620358,156.117554 33.066502,152.515167 34.292412,149.885712 
	C35.347927,149.926010 36.000462,149.959808 36.860641,150.249619 
	C37.105923,151.624023 37.498665,152.741821 36.896729,154.246735 
z"/>
<path fill="#000000" opacity="1.000000" stroke="none" 
	d="
M134.969788,156.823822 
	C134.947525,154.913345 134.881241,153.438995 134.920364,151.967468 
	C134.941986,151.153839 135.573318,150.834869 136.244766,151.133163 
	C136.796188,151.378143 137.212921,151.926300 137.689362,152.340073 
	C134.025101,154.754074 137.504318,159.155014 134.573761,163.047394 
	C134.757645,160.360443 134.863708,158.810791 134.969788,156.823822 
z"/>
<path fill="#F1201F" opacity="1.000000" stroke="none" 
	d="
M156.363144,175.242828 
	C156.173325,172.820145 154.889328,170.163345 157.253082,167.904953 
	C158.790512,170.059311 157.859116,172.219086 158.164276,174.653229 
	C157.674469,175.164307 157.199265,175.227066 156.363144,175.242828 
z"/>
<path fill="#000000" opacity="1.000000" stroke="none" 
	d="
M174.237640,149.727112 
	C172.110580,151.426239 173.485092,153.470001 173.173233,155.566223 
	C173.360977,156.142685 173.456100,156.321106 173.408585,156.767197 
	C172.590225,158.475662 173.785019,160.238770 171.788834,162.504868 
	C172.643112,157.351166 170.665283,153.017242 173.598572,148.876694 
	C174.160706,149.029755 174.278809,149.226135 174.237640,149.727112 
z"/>
<path fill="#F7F7F7" opacity="1.000000" stroke="none" 
	d="
M66.605194,161.069672 
	C68.142502,161.246353 69.959457,160.257950 70.354561,161.933395 
	C70.674644,163.290726 68.961731,163.762863 67.960403,163.605988 
	C66.906601,163.440887 64.690323,163.381638 66.605194,161.069672 
z"/>
<path fill="#000000" opacity="1.000000" stroke="none" 
	d="
M80.161026,161.559235 
	C78.103966,157.736282 79.208054,153.341690 79.500946,149.036942 
	C81.117813,153.044159 80.235176,157.127533 80.161026,161.559235 
z"/>
<path fill="#EBEBEB" opacity="1.000000" stroke="none" 
	d="
M31.174742,161.954376 
	C30.906420,157.940536 30.948879,153.940918 30.969856,149.481323 
	C31.130106,149.015747 31.311838,149.010162 31.766237,149.010162 
	C32.025475,153.024368 32.012039,157.032990 32.053089,161.497757 
	C31.900223,161.958801 31.692875,161.963715 31.174742,161.954376 
z"/>
<path fill="#EC1313" opacity="1.000000" stroke="none" 
	d="
M90.958389,138.366425 
	C91.713432,137.941956 92.647064,137.779480 92.959099,136.281677 
	C93.853119,136.847549 94.688332,137.760040 95.795837,138.829193 
	C96.584099,139.776962 96.498756,140.495667 95.401405,141.147461 
	C93.711052,140.315536 92.427971,139.477722 90.958389,138.366425 
z"/>
<path fill="#E1E1E1" opacity="1.000000" stroke="none" 
	d="
M80.129753,162.001312 
	C79.934166,157.958008 79.965851,153.961288 79.940994,149.509430 
	C80.073494,149.037537 80.262520,149.020782 80.736206,149.006866 
	C80.994186,153.043991 80.967529,157.078278 80.880859,161.574005 
	C80.820854,162.035431 80.357025,162.047882 80.129753,162.001312 
z"/>
<path fill="#FBF4EF" opacity="1.000000" stroke="none" 
	d="
M181.155151,66.580544 
	C181.343643,70.020744 181.401581,73.825592 181.287933,78.037552 
	C181.085739,74.611511 181.055161,70.778351 181.155151,66.580544 
z"/>
<path fill="#FBF7F2" opacity="1.000000" stroke="none" 
	d="
M147.021088,123.812881 
	C146.367081,124.149040 145.920715,124.365082 145.226715,124.637512 
	C144.520645,121.179070 146.602112,120.702614 149.772507,121.061859 
	C150.211166,121.643616 150.007339,122.093262 149.191666,122.502853 
	C148.650513,122.625267 148.492981,122.684280 148.165695,122.929947 
	C147.737885,123.305580 147.482147,123.497627 147.021088,123.812881 
z"/>
<path fill="#FBF4EF" opacity="1.000000" stroke="none" 
	d="
M129.714676,140.124756 
	C130.763016,140.015030 131.513168,140.035812 132.639557,140.067535 
	C132.432190,141.388245 131.232971,141.942734 130.029205,142.464142 
	C129.157501,142.841736 127.984131,143.454117 127.581985,142.156342 
	C127.202209,140.930771 128.734787,140.849487 129.714676,140.124756 
z"/>
<path fill="#4E4E4E" opacity="1.000000" stroke="none" 
	d="
M160.994781,160.537476 
	C158.915512,157.629990 160.327057,154.026016 160.561096,150.276505 
	C160.934402,153.378052 160.981110,156.729645 160.994781,160.537476 
z"/>
<path fill="#ABABAB" opacity="1.000000" stroke="none" 
	d="
M36.724056,154.588257 
	C36.022789,153.523056 36.204300,152.351242 36.770859,150.839417 
	C38.270538,150.712357 40.007275,150.283997 39.961594,152.242538 
	C39.929878,153.602234 39.198967,154.741135 37.018570,154.570892 
	C36.555462,154.587601 36.728756,154.544052 36.724056,154.588257 
z"/>
<path fill="#F89522" opacity="1.000000" stroke="none" 
	d="
M50.003700,68.400055 
	C51.786846,71.054932 50.987370,74.232910 50.369049,77.670776 
	C50.020489,76.247253 49.944378,74.536316 49.807507,72.400787 
	C49.746746,71.976196 49.625755,71.500015 49.686249,71.261932 
	C49.808868,70.272842 49.870991,69.521835 50.003700,68.400055 
z"/>
<path fill="#F70304" opacity="1.000000" stroke="none" 
	d="
M130.374756,62.909336 
	C131.574738,63.350773 133.064178,63.845943 132.428818,65.136841 
	C131.709015,66.599304 130.326233,66.031143 129.006317,64.938469 
	C129.243530,64.085968 129.682938,63.541771 130.374756,62.909336 
z"/>
<path fill="#FBF7F1" opacity="1.000000" stroke="none" 
	d="
M98.674164,132.729309 
	C100.216362,133.099930 101.205200,133.606735 100.716072,135.104584 
	C100.460938,135.885895 99.564941,136.466125 98.771729,136.204819 
	C97.579628,135.812134 98.149658,134.591812 97.996216,133.366791 
	C98.139313,132.841003 98.284912,132.663391 98.674164,132.729309 
z"/>
<path fill="#F5F5F5" opacity="1.000000" stroke="none" 
	d="
M44.037148,158.394775 
	C44.255749,157.556229 44.530262,157.035538 44.924873,156.245514 
	C47.525097,156.385834 47.062763,157.846207 46.171349,159.731781 
	C45.169216,159.954666 44.351925,159.748581 44.037148,158.394775 
z"/>
<path fill="#F59291" opacity="1.000000" stroke="none" 
	d="
M35.308998,174.738434 
	C34.699177,172.602417 35.600590,170.104355 34.162636,167.489655 
	C38.043365,168.780807 35.064224,172.043121 35.308998,174.738434 
z"/>
<path fill="#FBF7F2" opacity="1.000000" stroke="none" 
	d="
M127.453018,129.986099 
	C127.591331,130.759384 127.387436,131.537521 127.215317,132.618988 
	C126.194786,132.399261 124.420853,132.429398 124.650436,130.778839 
	C124.798958,129.711105 126.218475,130.110001 127.453018,129.986099 
z"/>
<path fill="#E1E1E1" opacity="1.000000" stroke="none" 
	d="
M181.033691,153.799438 
	C178.802933,153.413742 178.216171,152.503586 180.752762,151.071838 
	C182.183502,151.823364 181.719009,152.674484 181.033691,153.799438 
z"/>
<path fill="#4E4E4E" opacity="1.000000" stroke="none" 
	d="
M73.384094,159.822784 
	C70.281685,158.890503 72.841866,156.504639 72.442673,154.376770 
	C73.104042,154.752960 73.419273,155.574783 73.876740,156.699768 
	C73.979988,157.870590 74.006767,158.750488 73.384094,159.822784 
z"/>
<path fill="#F0090A" opacity="1.000000" stroke="none" 
	d="
M83.212967,100.705147 
	C82.470757,101.281731 81.954742,101.559883 81.167038,101.948708 
	C80.562531,102.117210 80.274307,102.029160 79.940475,101.580368 
	C80.191917,100.687149 80.533554,100.008774 81.024300,98.980492 
	C81.648079,98.418716 82.135139,98.384949 82.943726,98.742386 
	C83.490532,99.416908 83.552818,99.900520 83.212967,100.705147 
z"/>
<path fill="#F3090A" opacity="1.000000" stroke="none" 
	d="
M148.978439,122.865768 
	C149.192017,122.230232 149.576004,121.894211 150.073395,121.324356 
	C150.565262,121.003632 150.943726,120.916756 151.611664,120.785797 
	C151.821594,122.501099 151.644531,124.149734 148.978439,122.865768 
z"/>
<path fill="#FBF7F2" opacity="1.000000" stroke="none" 
	d="
M133.954956,120.011688 
	C133.611435,121.114250 133.075424,121.937286 132.287720,122.923660 
	C132.510101,121.916527 130.735397,119.588814 133.954956,120.011688 
z"/>
<path fill="#E1E1E1" opacity="1.000000" stroke="none" 
	d="
M174.386353,150.082001 
	C174.135651,149.830109 174.192932,149.628510 174.146423,149.130142 
	C175.054520,147.614197 176.013535,147.728607 177.001450,149.209320 
	C177.074173,149.470764 176.897430,149.877167 176.709778,150.004333 
	C175.912857,150.131744 175.303604,150.132004 174.386353,150.082001 
z"/>
<path fill="#FBF7F1" opacity="1.000000" stroke="none" 
	d="
M95.048904,141.453140 
	C95.831665,141.014236 96.107155,140.455429 96.080887,139.333374 
	C97.212784,139.974960 97.349480,141.206116 96.480888,142.321960 
	C96.030197,142.900925 95.379662,142.422302 95.048904,141.453140 
z"/>
<path fill="#F5F5F5" opacity="1.000000" stroke="none" 
	d="
M41.219635,159.845825 
	C40.464016,159.767380 39.700840,159.655273 39.504009,159.260666 
	C39.199951,158.651093 39.783508,158.243942 40.700539,158.038879 
	C40.997208,158.000000 41.470200,157.997345 41.705910,157.990417 
	C41.941624,157.983490 41.990208,158.009903 42.003292,158.035095 
	C41.832867,158.602066 41.649361,159.143814 41.219635,159.845825 
z"/>
<path fill="#CDCDCD" opacity="1.000000" stroke="none" 
	d="
M73.604355,160.134949 
	C73.286095,159.187149 73.351006,158.268616 73.717438,157.176514 
	C75.904999,158.075546 76.098587,159.131332 73.604355,160.134949 
z"/>
<path fill="#EC1313" opacity="1.000000" stroke="none" 
	d="
M92.089523,134.632751 
	C90.589584,135.010468 89.055542,135.012512 89.006111,132.425201 
	C89.143372,131.898056 89.299225,131.747055 89.737350,131.758148 
	C90.682388,132.722534 91.345139,133.524826 92.089523,134.632751 
z"/>
<path fill="#8B8B8B" opacity="1.000000" stroke="none" 
	d="
M154.666992,148.528229 
	C153.860336,148.612564 153.258148,148.738235 154.066345,148.569580 
	C153.390686,148.569580 154.131073,148.569580 154.666992,148.528229 
z"/>
<path fill="#FBF7F1" opacity="1.000000" stroke="none" 
	d="
M84.885056,127.632866 
	C84.166275,127.250946 82.523598,128.435150 82.055664,126.348328 
	C83.157211,125.944550 84.072678,126.394844 84.885056,127.632866 
z"/>
<path fill="#FAF2EE" opacity="1.000000" stroke="none" 
	d="
M79.925751,108.699295 
	C79.056618,108.565529 78.141914,108.074745 77.053711,107.319351 
	C78.063164,107.057602 79.377769,106.753716 79.925751,108.699295 
z"/>
<path fill="#FBF4EF" opacity="1.000000" stroke="none" 
	d="
M181.055267,86.069168 
	C181.200104,87.262390 181.286301,88.928940 181.231476,90.923920 
	C181.059174,89.682404 181.027908,88.112450 181.055267,86.069168 
z"/>
<path fill="#FBF7F2" opacity="1.000000" stroke="none" 
	d="
M165.577484,98.999344 
	C165.916214,100.514954 164.769592,100.690163 163.326782,100.900894 
	C163.090607,99.489059 163.938828,98.979691 165.577484,98.999344 
z"/>
<path fill="#CDCDCD" opacity="1.000000" stroke="none" 
	d="
M46.020607,160.033813 
	C46.573605,160.317932 47.117481,160.551086 47.620975,160.851868 
	C47.661839,160.876266 47.483955,161.549515 47.309193,161.603729 
	C46.515839,161.849884 46.221344,161.333298 46.091103,160.342728 
	C46.067074,160.041016 46.001064,160.000320 46.020607,160.033813 
z"/>
<path fill="#FBF7F2" opacity="1.000000" stroke="none" 
	d="
M144.768829,109.694519 
	C144.531677,110.330284 144.093124,110.747093 143.360199,111.255829 
	C143.176941,110.411346 142.790024,109.075500 144.768829,109.694519 
z"/>
<path fill="#FBF7F1" opacity="1.000000" stroke="none" 
	d="
M81.969574,125.700684 
	C81.088081,125.947479 80.451813,125.586494 80.314537,124.279297 
	C81.113350,124.070808 81.757050,124.453545 81.969574,125.700684 
z"/>
<path fill="#F7F7F7" opacity="1.000000" stroke="none" 
	d="
M71.907257,150.656464 
	C71.217140,150.930908 70.531593,150.883469 70.453903,150.029327 
	C70.436966,149.843201 70.811569,149.621460 71.005844,149.416138 
	C71.313629,149.732788 71.621399,150.049438 71.907257,150.656464 
z"/>
<path fill="#FBF4EF" opacity="1.000000" stroke="none" 
	d="
M125.264603,135.416443 
	C124.489861,134.766724 124.462181,134.256073 125.322922,134.118942 
	C125.634277,134.069336 126.012222,134.437576 126.359787,134.615158 
	C126.073349,134.911331 125.786911,135.207504 125.264603,135.416443 
z"/>
<path fill="#E1E1E1" opacity="1.000000" stroke="none" 
	d="
M178.011139,157.666153 
	C177.630646,157.278610 177.536560,156.908447 177.442474,156.538284 
	C177.814774,156.548782 178.187088,156.559265 178.559387,156.569763 
	C178.472107,156.941025 178.384842,157.312271 178.011139,157.666153 
z"/>
<path fill="#FAF2EE" opacity="1.000000" stroke="none" 
	d="
M62.818462,100.659904 
	C61.840485,100.973206 60.727531,100.990318 60.199539,99.354736 
	C61.029972,99.493652 61.841812,99.963501 62.818462,100.659904 
z"/>
<path fill="#FBF7F2" opacity="1.000000" stroke="none" 
	d="
M119.761047,130.929047 
	C119.773743,130.339417 120.084343,129.665146 120.634491,128.844070 
	C120.963943,129.550247 120.922234,130.353271 119.761047,130.929047 
z"/>
<path fill="#FBF7F2" opacity="1.000000" stroke="none" 
	d="
M152.674011,105.005463 
	C152.725571,105.688148 152.787903,106.802055 151.245941,106.033310 
	C151.458908,105.667015 151.919052,105.344879 152.674011,105.005463 
z"/>
<path fill="#FBF7F1" opacity="1.000000" stroke="none" 
	d="
M81.048103,118.557373 
	C81.617584,118.646210 82.249962,119.040154 83.010254,119.687714 
	C82.269066,119.945076 81.459686,119.836617 81.048103,118.557373 
z"/>
<path fill="#121212" opacity="1.000000" stroke="none" 
	d="
M72.915970,153.596115 
	C72.788811,153.931122 72.520477,153.868378 72.385300,153.895096 
	C72.100220,153.181259 71.950302,152.440689 71.842865,151.323486 
	C71.885338,150.946823 71.939644,151.007751 71.957947,150.971313 
	C73.130539,151.343994 73.150719,152.273254 72.915970,153.596115 
z"/>
<path fill="#F0090A" opacity="1.000000" stroke="none" 
	d="
M82.778534,103.414001 
	C83.606491,103.075417 84.510651,103.140518 84.956009,104.597336 
	C84.320312,104.523796 83.618134,104.109497 82.778534,103.414001 
z"/>
<path fill="#FAF2EE" opacity="1.000000" stroke="none" 
	d="
M102.085167,124.098145 
	C102.589066,124.343018 103.080429,124.905472 103.634354,125.746597 
	C102.762306,125.885529 102.141815,125.428810 102.085167,124.098145 
z"/>
<path fill="#FAF2EE" opacity="1.000000" stroke="none" 
	d="
M67.228302,96.163055 
	C67.896667,96.078812 68.738655,96.282204 69.780716,96.746338 
	C69.121170,96.821617 68.261543,96.636154 67.228302,96.163055 
z"/>
<path fill="#FAF2EE" opacity="1.000000" stroke="none" 
	d="
M72.835594,104.671829 
	C72.466774,104.752052 71.917023,104.605125 71.188766,104.227188 
	C71.558403,104.145683 72.106537,104.295181 72.835594,104.671829 
z"/>
<path fill="#F7F7F7" opacity="1.000000" stroke="none" 
	d="
M64.766594,150.988342 
	C64.593178,151.102829 64.418640,151.047195 64.244102,150.991547 
	C64.417892,150.933777 64.591682,150.876007 64.766594,150.988342 
z"/>
<path fill="#FAF2EE" opacity="1.000000" stroke="none" 
	d="
M68.796143,102.733261 
	C68.381477,102.858543 67.764313,102.720825 66.911514,102.363724 
	C67.315132,102.252991 67.954384,102.361633 68.796143,102.733261 
z"/>
<path fill="#FBF7F2" opacity="1.000000" stroke="none" 
	d="
M146.436157,102.018021 
	C146.569733,101.694244 146.986801,101.341560 147.686768,100.972931 
	C147.552979,101.301025 147.136307,101.645073 146.436157,102.018021 
z"/>
<path fill="#FBF7F2" opacity="1.000000" stroke="none" 
	d="
M148.272186,100.954102 
	C147.959961,100.961075 148.114166,100.541534 148.180054,100.328079 
	C148.617859,100.034569 148.989807,99.954506 149.647583,99.853424 
	C149.483749,100.203987 149.034088,100.575562 148.272186,100.954102 
z"/>
<path fill="#E1E1E1" opacity="1.000000" stroke="none" 
	d="
M173.517212,157.037201 
	C173.220459,156.856445 173.174942,156.678024 173.197632,156.231934 
	C173.689209,156.142029 174.112564,156.319763 174.535904,156.497513 
	C174.280090,156.678192 174.024277,156.858871 173.517212,157.037201 
z"/>
<path fill="#FC9B39" opacity="1.000000" stroke="none" 
	d="
M98.940353,132.588226 
	C98.917816,132.972839 98.455269,132.985504 98.224495,133.002045 
	C97.885292,132.447601 97.057739,131.827972 97.796593,131.325317 
	C98.688362,130.718628 98.761543,131.645554 98.940353,132.588226 
z"/>
<path fill="#FBF7F1" opacity="1.000000" stroke="none" 
	d="
M89.858459,131.686890 
	C89.842751,131.902527 89.665878,131.884796 89.238266,131.958069 
	C88.711411,131.857819 88.435295,131.666595 88.133270,131.218979 
	C88.637329,131.126251 89.167313,131.289886 89.858459,131.686890 
z"/>
<path fill="#F3090A" opacity="1.000000" stroke="none" 
	d="
M162.347626,126.081375 
	C162.613541,125.748024 163.245667,125.426926 164.255722,125.136612 
	C163.993713,125.476135 163.353775,125.784882 162.347626,126.081375 
z"/>
<path fill="#F3090A" opacity="1.000000" stroke="none" 
	d="
M157.296478,127.969833 
	C157.492798,127.638977 157.991119,127.337639 158.795135,127.036148 
	C158.600037,127.357117 158.099274,127.678238 157.296478,127.969833 
z"/>
<path fill="#FBF7F1" opacity="1.000000" stroke="none" 
	d="
M45.998787,108.413589 
	C45.234383,108.721420 45.091213,108.160995 45.046078,107.291664 
	C45.405334,107.392464 45.691582,107.778084 45.998787,108.413589 
z"/>
<path fill="#F70304" opacity="1.000000" stroke="none" 
	d="
M135.757812,58.277046 
	C135.859177,58.502243 135.689560,58.695621 135.279724,58.908199 
	C135.123077,58.670364 135.272186,58.442974 135.757812,58.277046 
z"/>
<path fill="#F59291" opacity="1.000000" stroke="none" 
	d="
M33.990341,175.508545 
	C34.027191,175.271530 34.213264,175.186844 34.702980,175.059814 
	C34.717606,175.231934 34.428585,175.446411 33.990341,175.508545 
z"/>
<path fill="#E70202" opacity="1.000000" stroke="none" 
	d="
M192.931152,88.745392 
	C192.713348,88.824158 192.544830,88.673317 192.424347,88.490753 
	C192.394684,88.445801 192.521515,88.297562 192.725250,88.107819 
	C192.915451,88.180580 192.956802,88.342331 192.931152,88.745392 
z"/>
<path fill="#F70304" opacity="1.000000" stroke="none" 
	d="
M148.705597,50.117836 
	C148.718796,50.351196 148.448227,50.578876 147.909668,50.845009 
	C147.901718,50.626358 148.161774,50.369259 148.705597,50.117836 
z"/>
<path fill="#F70304" opacity="1.000000" stroke="none" 
	d="
M146.715897,51.131050 
	C146.735977,51.357540 146.482910,51.583988 145.974640,51.857231 
	C145.960556,51.646351 146.201645,51.388680 146.715897,51.131050 
z"/>
<path fill="#FBF4EF" opacity="1.000000" stroke="none" 
	d="
M175.932831,52.788509 
	C175.843826,52.941883 175.675888,52.933880 175.259949,52.880127 
	C175.292603,52.765297 175.573242,52.696217 175.932831,52.788509 
z"/>
<path fill="#FAF2EE" opacity="1.000000" stroke="none" 
	d="
M54.801659,53.779068 
	C54.592873,53.927406 54.197563,53.818932 53.603607,53.467140 
	C53.808350,53.323303 54.211742,53.422783 54.801659,53.779068 
z"/>
<path fill="#FAF2EE" opacity="1.000000" stroke="none" 
	d="
M57.917542,54.750240 
	C57.826363,54.923107 57.656799,54.945671 57.254547,54.860130 
	C57.294289,54.701328 57.566719,54.650635 57.917542,54.750240 
z"/>
<path fill="#FBF7F1" opacity="1.000000" stroke="none" 
	d="
M49.607567,86.123978 
	C49.734909,86.027763 49.874527,86.497894 49.820484,86.737030 
	C49.415234,86.801331 49.319828,86.549332 49.607567,86.123978 
z"/>
<path fill="#FBF7F1" opacity="1.000000" stroke="none" 
	d="
M49.628296,83.113731 
	C49.759277,83.022743 49.872509,83.500832 49.803497,83.736580 
	C49.393078,83.779549 49.314018,83.523682 49.628296,83.113731 
z"/>
<path fill="#F70304" opacity="1.000000" stroke="none" 
	d="
M134.719849,59.109566 
	C134.856064,59.397530 134.645874,59.639530 134.105942,59.870361 
	C134.070618,59.676811 134.269699,59.411613 134.719849,59.109566 
z"/>
<path fill="#F70304" opacity="1.000000" stroke="none" 
	d="
M125.617348,67.811615 
	C125.709480,68.028786 125.538506,68.358383 125.105423,68.802704 
	C125.013618,68.586296 125.183929,68.255165 125.617348,67.811615 
z"/>
<path fill="#FBF4EF" opacity="1.000000" stroke="none" 
	d="
M176.447815,71.883621 
	C176.322891,71.972015 176.214966,71.498703 176.291870,71.268494 
	C176.680908,71.236732 176.748901,71.489044 176.447815,71.883621 
z"/>
<path fill="#FBF7F1" opacity="1.000000" stroke="none" 
	d="
M49.615948,71.116867 
	C49.746750,71.023842 49.885464,71.500038 49.816105,71.738113 
	C49.397778,71.791527 49.310577,71.536095 49.615948,71.116867 
z"/>
<path fill="#FBF7F1" opacity="1.000000" stroke="none" 
	d="
M89.181061,125.048630 
	C89.394882,124.973572 89.712242,125.184914 90.179619,125.643753 
	C89.981285,125.705833 89.632942,125.520424 89.181061,125.048630 
z"/>
<path fill="#F3090A" opacity="1.000000" stroke="none" 
	d="
M138.705322,130.018585 
	C138.769547,130.226654 138.577484,130.499390 138.146423,130.863007 
	C138.087982,130.663651 138.268509,130.373459 138.705322,130.018585 
z"/>
<path fill="#FBF4EF" opacity="1.000000" stroke="none" 
	d="
M130.939484,130.790649 
	C130.866913,130.557816 131.110229,130.239136 131.612030,129.760376 
	C131.665482,129.968460 131.460419,130.336639 130.939484,130.790649 
z"/>
<path fill="#F7F7F7" opacity="1.000000" stroke="none" 
	d="
M65.443954,148.539368 
	C65.406281,148.478180 65.481621,148.600571 65.443954,148.539368 
z"/>
<path fill="#F3090A" opacity="1.000000" stroke="none" 
	d="
M152.309937,129.938354 
	C152.305389,129.684525 152.615463,129.443054 153.226425,129.170029 
	C153.226410,129.409225 152.925476,129.679962 152.309937,129.938354 
z"/>
<path fill="#F3090A" opacity="1.000000" stroke="none" 
	d="
M139.752289,129.093384 
	C139.897797,129.378616 139.698212,129.625259 139.181366,129.880447 
	C139.134445,129.683182 139.315460,129.405136 139.752289,129.093384 
z"/>
<path fill="#F3090A" opacity="1.000000" stroke="none" 
	d="
M154.323380,129.031433 
	C154.334930,128.764359 154.690536,128.500977 155.389008,128.234161 
	C155.377075,128.498871 155.022247,128.766998 154.323380,129.031433 
z"/>
<path fill="#FBF7F1" opacity="1.000000" stroke="none" 
	d="
M85.889053,128.835251 
	C85.675438,128.887466 85.373207,128.708633 85.058846,128.256226 
	C85.364571,128.109070 85.615807,128.316254 85.889053,128.835251 
z"/>
<path fill="#F3090A" opacity="1.000000" stroke="none" 
	d="
M160.318146,126.849945 
	C160.334793,126.616516 160.660934,126.397400 161.290344,126.165825 
	C161.271622,126.390320 160.949631,126.627289 160.318146,126.849945 
z"/>
<path fill="#FAF2EE" opacity="1.000000" stroke="none" 
	d="
M95.920898,126.611137 
	C95.665855,126.805107 95.447166,126.675613 95.367165,126.175537 
	C95.593117,126.100677 95.743584,126.261581 95.920898,126.611137 
z"/>
<path fill="#FBF7F1" opacity="1.000000" stroke="none" 
	d="
M49.693504,98.104446 
	C49.836006,98.015152 49.939873,98.500954 49.874790,98.740631 
	C49.671272,98.816429 49.513676,98.663773 49.406845,98.481377 
	C49.377304,98.430939 49.498802,98.292046 49.693504,98.104446 
z"/>
<path fill="#FBF7F2" opacity="1.000000" stroke="none" 
	d="
M148.982437,115.843613 
	C148.962616,115.632767 149.210999,115.371758 149.733429,115.074562 
	C149.755219,115.290062 149.502930,115.541756 148.982437,115.843613 
z"/>
<path fill="#FBF7F1" opacity="1.000000" stroke="none" 
	d="
M57.209076,106.350128 
	C57.392494,106.213120 57.766743,106.295975 58.330597,106.606323 
	C58.146770,106.745880 57.773335,106.657928 57.209076,106.350128 
z"/>
<path fill="#FBF4EF" opacity="1.000000" stroke="none" 
	d="
M172.153641,105.422668 
	C172.186295,105.224838 172.336868,105.146500 172.742004,105.071533 
	C172.754898,105.230659 172.513229,105.386406 172.153641,105.422668 
z"/>
<path fill="#848484" opacity="1.000000" stroke="none" 
	d="
M104.956200,151.973587 
	C104.965996,151.991272 105.253929,151.710480 105.253929,151.710480 
	C105.253929,151.710480 105.132111,151.869247 105.020660,151.901108 
	C104.909218,151.932968 104.946404,151.955902 104.956200,151.973587 
z"/>
<path fill="#FBF4EF" opacity="1.000000" stroke="none" 
	d="
M176.368134,102.886627 
	C176.236237,102.980659 176.120117,102.501823 176.176941,102.262192 
	C176.587906,102.207237 176.676666,102.463913 176.368134,102.886627 
z"/>
<path fill="#F0090A" opacity="1.000000" stroke="none" 
	d="
M77.895309,100.319458 
	C78.080734,100.206261 78.390663,100.330269 78.848465,100.662323 
	C78.670837,100.765800 78.345322,100.661224 77.895309,100.319458 
z"/>
<path fill="#FBF4EF" opacity="1.000000" stroke="none" 
	d="
M176.366104,98.887466 
	C176.233765,98.977837 176.126389,98.497253 176.195587,98.261009 
	C176.607147,98.219955 176.685028,98.477402 176.366104,98.887466 
z"/>
<path fill="#F9E7E5" opacity="1.000000" stroke="none" 
	d="
M87.789902,81.447983 
	C92.143997,79.782158 95.911011,80.892586 98.544037,84.102592 
	C102.173195,88.527023 101.640984,96.440659 97.885910,100.156677 
	C94.640121,103.368698 90.966835,103.813728 86.790985,100.963104 
	C85.023483,100.137871 83.925377,99.036819 83.892464,97.433662 
	C83.689461,87.544220 82.775749,77.637863 84.701950,67.386795 
	C84.994797,66.993698 85.000000,67.000000 84.997040,66.997246 
	C85.381119,66.682358 85.820480,66.525536 86.681641,66.573875 
	C87.043137,66.600014 87.114822,66.888039 87.258316,66.925903 
	C87.481651,67.793564 87.485359,68.625885 87.485062,69.874527 
	C87.525116,73.896080 87.401779,77.502464 87.789902,81.447983 
z"/>
<path fill="#E61916" opacity="1.000000" stroke="none" 
	d="
M84.636597,67.000328 
	C84.976555,75.936279 84.933601,84.878922 84.958145,93.821381 
	C84.963982,95.949135 84.779144,98.156204 86.305061,100.432549 
	C85.603645,100.882965 84.732201,100.948753 83.423767,101.009048 
	C82.989662,100.543472 82.992554,100.083374 82.986267,99.278351 
	C81.920807,97.393791 81.293213,95.683090 81.407692,93.824348 
	C81.906303,85.729515 81.371864,77.624268 81.809364,69.083206 
	C82.040314,68.361366 82.170380,68.085609 82.573753,67.443161 
	C83.324165,67.053299 83.801277,67.030128 84.636597,67.000328 
z"/>
<path fill="#FDF6F6" opacity="1.000000" stroke="none" 
	d="
M82.640823,67.729515 
	C82.879974,78.056923 82.994385,88.115013 83.042938,98.553268 
	C82.574661,98.881981 82.172249,98.830536 81.471619,98.704834 
	C81.138435,98.278488 81.103455,97.926392 81.006805,97.314651 
	C79.959480,88.582733 80.824684,80.076294 80.423904,71.122101 
	C80.333771,69.250526 79.526649,68.343529 77.579231,67.198807 
	C79.310539,67.111298 80.289108,67.061836 81.634537,67.088409 
	C82.172958,67.263031 82.344513,67.361618 82.640823,67.729515 
z"/>
<path fill="#F6DBD9" opacity="1.000000" stroke="none" 
	d="
M102.489182,84.494522 
	C106.425514,90.533966 106.033592,95.007179 101.662109,97.869049 
	C102.182266,94.018127 102.590393,90.184128 101.410789,86.348770 
	C101.214180,85.709518 100.302406,84.346748 102.489182,84.494522 
z"/>
<path fill="#EB5356" opacity="1.000000" stroke="none" 
	d="
M80.222931,71.126053 
	C81.757973,79.107819 80.491516,87.634216 80.997360,96.583557 
	C78.954277,91.794876 80.383156,86.333969 80.039474,80.976082 
	C79.839859,77.864311 80.048286,74.726364 80.222931,71.126053 
z"/>
<path fill="#DC0103" opacity="1.000000" stroke="none" 
	d="
M88.018539,81.341942 
	C85.750374,78.340279 87.647209,74.521072 87.139954,70.473175 
	C87.342575,69.852913 87.466980,69.681801 87.785538,69.761703 
	C87.989868,73.640167 88.000053,77.267609 88.018539,81.341942 
z"/>
<path fill="#E61916" opacity="1.000000" stroke="none" 
	d="
M87.993881,69.690025 
	C87.979675,70.012726 87.598930,70.018723 87.408546,70.021378 
	C87.234955,69.256668 87.251740,68.489304 87.335167,67.342865 
	C87.603897,67.764961 87.805992,68.566139 87.993881,69.690025 
z"/>
<path fill="#E61916" opacity="1.000000" stroke="none" 
	d="
M86.845795,66.425583 
	C86.585861,66.677597 86.128578,66.755173 85.332687,66.913620 
	C85.310631,66.223900 85.849281,65.947617 86.845795,66.425583 
z"/>
<path fill="#F8E4E2" opacity="1.000000" stroke="none" 
	d="
M82.837173,67.772758 
	C82.518074,67.897583 82.321075,67.735115 82.087982,67.337929 
	C82.001404,67.164436 82.415344,67.035454 82.631203,67.055962 
	C82.847061,67.076469 82.908775,67.546692 82.837173,67.772758 
z"/>
<path fill="#F8E4E2" opacity="1.000000" stroke="none" 
	d="
M127.881256,83.818901 
	C127.615295,85.816917 127.044563,87.533264 126.504349,89.643059 
	C127.928894,90.564041 127.688660,91.908287 127.960327,92.968353 
	C129.401321,98.591202 131.475998,99.849403 137.666260,98.465363 
	C138.200790,98.247551 138.418472,98.169617 139.323654,98.040627 
	C140.585098,97.745590 141.452637,97.139725 141.679398,97.323700 
	C142.441467,97.941963 141.991837,98.681229 141.477936,99.373672 
	C138.178101,103.820000 132.195007,104.196678 126.439377,100.094818 
	C121.543495,96.302406 121.190262,89.308174 125.759987,84.242142 
	C126.172829,84.079689 126.510658,84.004265 126.680740,83.972214 
	C127.092705,83.805862 127.334587,83.671547 127.881256,83.818901 
z"/>
<path fill="#E61819" opacity="1.000000" stroke="none" 
	d="
M125.849373,83.948288 
	C123.293343,89.064171 122.618515,94.089722 126.010925,99.551865 
	C124.750099,100.603050 123.362869,101.359077 122.127731,99.216797 
	C122.554916,98.492531 122.520027,97.957855 122.131577,97.176636 
	C121.941849,96.962814 122.023880,96.982124 122.018723,97.023941 
	C119.267166,93.847824 120.405655,90.323715 121.114098,86.452515 
	C121.028770,85.623749 121.035957,85.168678 121.057465,84.373100 
	C122.518227,83.170380 123.977928,82.582253 125.849373,83.948288 
z"/>
<path fill="#F70304" opacity="1.000000" stroke="none" 
	d="
M158.539810,57.069344 
	C158.912766,60.365582 158.945251,63.728230 158.919006,67.545990 
	C154.479080,67.223465 155.092529,63.837784 155.783020,61.089108 
	C156.097198,59.838440 156.551788,57.919647 158.539810,57.069344 
z"/>
<path fill="#FAF2EE" opacity="1.000000" stroke="none" 
	d="
M128.587372,84.085381 
	C127.963173,84.076408 127.740318,84.052238 127.184143,83.984116 
	C128.124115,81.218994 130.492813,81.932755 132.716171,81.997780 
	C135.463806,82.078148 138.216049,82.002113 141.405289,82.119965 
	C142.896378,83.813354 142.742950,85.394753 141.474167,86.972023 
	C137.957275,82.118828 133.699860,82.147720 128.587372,84.085381 
z"/>
<path fill="#F59291" opacity="1.000000" stroke="none" 
	d="
M141.025970,87.258331 
	C142.795334,85.958626 141.887894,84.369209 141.885925,82.617966 
	C144.064285,84.123589 142.695053,86.629112 142.922150,89.238068 
	C141.748840,89.369965 141.266464,88.560982 141.025970,87.258331 
z"/>
<path fill="#F3090A" opacity="1.000000" stroke="none" 
	d="
M142.451462,131.531464 
	C142.419220,131.477112 142.483704,131.585800 142.451462,131.531464 
z"/>
<path fill="#F3090A" opacity="1.000000" stroke="none" 
	d="
M147.057495,123.875023 
	C147.033081,123.672714 147.252716,123.412430 147.734146,123.134384 
	C147.764481,123.350098 147.533035,123.583572 147.057495,123.875023 
z"/>
<path fill="#FB0203" opacity="1.000000" stroke="none" 
	d="
M139.285599,98.598259 
	C136.691528,101.171188 133.931213,101.443680 130.999680,100.171669 
	C126.799927,98.349327 126.318703,94.591644 126.408066,90.346519 
	C130.213196,90.270103 129.637741,86.912598 130.999619,84.331383 
	C132.180634,87.103226 133.827286,88.439415 136.668015,88.099167 
	C138.993607,87.820610 139.670563,89.833374 139.896317,91.679237 
	C140.114716,93.465195 139.980743,95.294243 140.006348,97.546967 
	C140.011154,97.989563 140.002411,98.005478 139.995773,98.009583 
	C139.842331,98.156021 139.695541,98.298355 139.285599,98.598259 
z"/>
<path fill="#FBF7F2" opacity="1.000000" stroke="none" 
	d="
M120.827988,86.398697 
	C122.831810,86.519371 122.315590,88.130508 121.862350,88.828964 
	C120.146965,91.472496 121.421722,93.818253 122.093643,96.661026 
	C118.507492,94.886986 118.240158,92.881386 120.827988,86.398697 
z"/>
<path fill="#FBF7F2" opacity="1.000000" stroke="none" 
	d="
M121.661011,97.233688 
	C123.100571,97.231850 123.038170,97.959084 122.326744,98.863235 
	C121.804817,98.443382 121.592491,97.973976 121.661011,97.233688 
z"/>
<path fill="#F50404" opacity="1.000000" stroke="none" 
	d="
M87.026665,90.946999 
	C87.025986,83.799423 87.984894,82.536995 92.714645,82.998512 
	C96.682701,83.385704 98.501053,86.795448 98.129120,93.061256 
	C97.888313,97.118042 96.350334,100.205772 91.881409,100.544128 
	C89.477654,100.726120 87.783165,99.226433 87.353073,96.820259 
	C87.037148,95.052841 87.121071,93.213943 87.026665,90.946999 
z"/>
<path fill="#F70304" opacity="1.000000" stroke="none" 
	d="
M139.264923,98.783661 
	C139.150330,98.495804 139.341049,98.295715 139.791870,98.084625 
	C139.992859,98.378822 139.832275,98.644760 139.264923,98.783661 
z"/>
</svg>